<svg width="18" height="18" viewBox="0 0 18 18" fill="none" xmlns="http://www.w3.org/2000/svg">
<path fill-rule="evenodd" clip-rule="evenodd" d="M15.75 3H13.5V2.25C13.5 1.00736 12.4926 0 11.25 0H6.75C5.50736 0 4.5 1.00736 4.5 2.25V3H2.25C1.00736 3 0 4.00736 0 5.25V15.75C0 16.9926 1.00736 18 2.25 18H15.75C16.9926 18 18 16.9926 18 15.75V5.25C18 4.00736 16.9926 3 15.75 3ZM6 2.25C6 1.83579 6.33579 1.5 6.75 1.5H11.25C11.6642 1.5 12 1.83579 12 2.25V3H6V2.25ZM2.25 4.5C1.83579 4.5 1.5 4.83579 1.5 5.25V7.5H16.5V5.25C16.5 4.83579 16.1642 4.5 15.75 4.5H2.25ZM10.5 9V10.5H7.5V9H10.5ZM2.25 16.5H15.75C16.1642 16.5 16.5 16.1642 16.5 15.75V9H12V11.25C12 11.6642 11.6642 12 11.25 12H6.75C6.33579 12 6 11.6642 6 11.25V9H1.5V15.75C1.5 16.1642 1.83579 16.5 2.25 16.5Z" fill="#01BBA6"/>
</svg>
