<svg width="18" height="18" viewBox="0 0 18 18" fill="none" xmlns="http://www.w3.org/2000/svg">
<path fill-rule="evenodd" clip-rule="evenodd" d="M11.7824 0.442497C15.4894 1.64761 17.9993 5.10206 17.9999 9C18.0069 12.9102 15.4882 16.3776 11.7674 17.58H11.7299C9.98215 18.1298 8.10771 18.1298 6.35993 17.58H6.32243C2.59543 16.3972 0.0585453 12.9433 0.0448555 9.03312C0.0311656 5.12296 2.5438 1.65134 6.26243 0.442497C8.05701 -0.135699 9.98785 -0.135699 11.7824 0.442497ZM13.3424 12C13.2353 13.181 13.0373 14.352 12.7499 15.5025C14.135 14.6953 15.2276 13.4688 15.8699 12H13.3424ZM1.49991 9C1.50041 8.49628 1.55065 7.99384 1.64991 7.5H4.54491C4.49991 7.995 4.49991 8.4975 4.49991 9C4.49991 9.5025 4.49991 10.005 4.54491 10.5H1.64991C1.55065 10.0062 1.50041 9.50372 1.49991 9ZM6.04491 7.5C5.99991 7.995 5.99991 8.49 5.99991 9C5.99991 9.51 5.99991 10.005 6.04491 10.5H11.9549C11.9999 10.005 11.9999 9.51 11.9999 9C11.9999 8.7431 11.9885 8.49 11.9772 8.23879C11.966 7.9913 11.9549 7.74565 11.9549 7.5H6.04491ZM13.4549 7.5H16.3499C16.5499 8.49 16.5499 9.51 16.3499 10.5H13.4549C13.4549 10.2534 13.4661 10.005 13.4773 9.75563L13.4773 9.75555V9.75552V9.75549V9.75547V9.75544C13.4886 9.50425 13.4999 9.25213 13.4999 9C13.4999 8.4975 13.4999 7.995 13.4549 7.5ZM13.3424 6H15.8699C15.2276 4.53123 14.135 3.30467 12.7499 2.4975C13.0373 3.64801 13.2353 4.81899 13.3424 6ZM10.9124 1.755C11.3883 3.12808 11.698 4.55324 11.8349 6H6.16491C6.30178 4.55324 6.61149 3.12808 7.08741 1.755C7.71167 1.59002 8.35423 1.50434 8.99991 1.5C9.64559 1.50434 10.2881 1.59002 10.9124 1.755ZM4.65741 6C4.76448 4.81899 4.96257 3.64801 5.24991 2.4975C3.86486 3.30467 2.77225 4.53123 2.12991 6H4.65741ZM2.12991 12H4.65741C4.76448 13.181 4.96257 14.352 5.24991 15.5025C3.86486 14.6953 2.77225 13.4688 2.12991 12ZM6.16491 12C6.30178 13.4468 6.61149 14.8719 7.08741 16.245C7.71167 16.41 8.35423 16.4957 8.99991 16.5C9.64559 16.4957 10.2881 16.41 10.9124 16.245C11.3883 14.8719 11.698 13.4468 11.8349 12H6.16491Z" fill="white"/>
</svg>
