<svg width="24" height="24" viewBox="0 0 24 24" fill="none" xmlns="http://www.w3.org/2000/svg">
<circle cx="12" cy="12" r="8.88" fill="white"/>
<path fill-rule="evenodd" clip-rule="evenodd" d="M12.0825 23.4732C18.3732 23.4732 23.4732 18.3732 23.4732 12.0826C23.4732 5.82 18.3732 0.720001 12.0825 0.720001C5.81997 0.720001 0.719971 5.82 0.719971 12.0826C0.719971 18.3732 5.81997 23.4732 12.0825 23.4732ZM9.53253 13.981L16.7297 6.78384C17.9484 5.53697 20.1581 7.71852 18.9112 8.96539L10.467 17.4096C9.98517 17.8914 9.0786 17.8914 8.59672 17.4096L5.25352 14.0664C4.03478 12.8476 6.1882 10.638 7.43507 11.8848L9.53227 13.982L9.53253 13.981Z" fill="#01BBA6"/>
</svg>
