<svg width="18" height="14" viewBox="0 0 18 14" fill="none" xmlns="http://www.w3.org/2000/svg">
<path d="M15.69 4.8325C15.3672 3.04791 13.8136 1.75006 12 1.75C11.5402 1.74758 11.0844 1.83417 10.6575 2.005C9.24967 0.425879 7.03158 -0.153958 5.03105 0.534183C3.03053 1.22232 1.6385 3.04397 1.5 5.155C0.32733 5.83525 -0.243417 7.21742 0.107641 8.52687C0.4587 9.83631 1.64432 10.7476 3 10.75H6C6.41422 10.75 6.75 10.4142 6.75 10C6.75 9.58579 6.41422 9.25001 6 9.25001H3C2.27492 9.24202 1.65936 8.7165 1.53776 8.00164C1.41616 7.28678 1.82334 6.58728 2.505 6.34001C2.80197 6.23264 2.99987 5.95078 3 5.635C3.00353 5.59007 3.00353 5.54494 3 5.5C3.00244 3.86092 4.06912 2.41333 5.63393 1.92551C7.19874 1.43769 8.89907 2.02267 9.8325 3.37C10.0596 3.69427 10.4996 3.78621 10.8375 3.58C11.5314 3.16125 12.3969 3.14807 13.1033 3.54549C13.8097 3.94291 14.2477 4.68952 14.25 5.5C14.25 5.91422 14.5858 6.25001 15 6.25001C15.8284 6.25001 16.5 6.92158 16.5 7.75001C16.5 8.57843 15.8284 9.25001 15 9.25001H12C11.5858 9.25001 11.25 9.58579 11.25 10C11.25 10.4142 11.5858 10.75 12 10.75H15C16.5191 10.7456 17.7952 9.60638 17.9712 8.09747C18.1471 6.58856 17.1674 5.18629 15.69 4.8325Z" fill="black"/>
<path d="M9.9675 10.9675L9.75 11.1925V7C9.75 6.58579 9.41422 6.25 9 6.25C8.58579 6.25 8.25 6.58579 8.25 7V11.1925L8.0325 10.9675C7.84226 10.7773 7.56497 10.703 7.3051 10.7726C7.04522 10.8422 6.84223 11.0452 6.7726 11.3051C6.70296 11.565 6.77726 11.8423 6.9675 12.0325L8.4675 13.5325C8.53883 13.6008 8.62294 13.6543 8.715 13.69C8.89653 13.7702 9.10347 13.7702 9.285 13.69C9.37707 13.6543 9.46118 13.6008 9.5325 13.5325L11.0325 12.0325C11.2227 11.8423 11.297 11.565 11.2274 11.3051C11.1578 11.0452 10.9548 10.8422 10.6949 10.7726C10.435 10.703 10.1577 10.7773 9.9675 10.9675Z" fill="black"/>
</svg>
