<svg width="18" height="14" viewBox="0 0 18 14" fill="none" xmlns="http://www.w3.org/2000/svg">
<path d="M15.69 4.8325C15.3672 3.04791 13.8135 1.75006 12 1.75C11.5402 1.74758 11.0843 1.83417 10.6575 2.005C9.24966 0.425879 7.03157 -0.153958 5.03104 0.534183C3.03052 1.22232 1.63849 3.04397 1.5 5.155C0.327322 5.83525 -0.243425 7.21742 0.107634 8.52687C0.458692 9.83631 1.64431 10.7476 3 10.75H6C6.41421 10.75 6.75 10.4142 6.75 10C6.75 9.58579 6.41421 9.25001 6 9.25001H3C2.27491 9.24202 1.65935 8.7165 1.53775 8.00164C1.41615 7.28678 1.82333 6.58728 2.505 6.34001C2.80196 6.23264 2.99986 5.95078 3 5.635C3.00352 5.59007 3.00352 5.54494 3 5.5C3.00243 3.86092 4.06911 2.41333 5.63392 1.92551C7.19874 1.43769 8.89906 2.02267 9.8325 3.37C10.0596 3.69427 10.4996 3.78621 10.8375 3.58C11.5314 3.16125 12.3969 3.14807 13.1033 3.54549C13.8097 3.94291 14.2477 4.68952 14.25 5.5C14.25 5.91422 14.5858 6.25001 15 6.25001C15.8284 6.25001 16.5 6.92158 16.5 7.75001C16.5 8.57843 15.8284 9.25001 15 9.25001H12C11.5858 9.25001 11.25 9.58579 11.25 10C11.25 10.4142 11.5858 10.75 12 10.75H15C16.5191 10.7456 17.7952 9.60638 17.9712 8.09747C18.1471 6.58856 17.1674 5.18629 15.69 4.8325Z" fill="black"/>
<path d="M11.0325 7.2175L9.5325 5.7175C9.46117 5.64922 9.37707 5.59569 9.285 5.56C9.10241 5.48499 8.8976 5.48499 8.715 5.56C8.62294 5.59569 8.53883 5.64922 8.4675 5.7175L6.9675 7.2175C6.67341 7.51159 6.67341 7.98841 6.9675 8.2825C7.26159 8.57659 7.73841 8.57659 8.0325 8.2825L8.25 8.0575V13C8.25 13.4142 8.58579 13.75 9 13.75C9.41422 13.75 9.75 13.4142 9.75 13V8.0575L9.9675 8.2825C10.1083 8.42448 10.3 8.50435 10.5 8.50435C10.7 8.50435 10.8917 8.42448 11.0325 8.2825C11.1745 8.14167 11.2544 7.94998 11.2544 7.75C11.2544 7.55002 11.1745 7.35832 11.0325 7.2175Z" fill="black"/>
</svg>
