<svg width="25" height="24" viewBox="0 0 25 24" fill="none" xmlns="http://www.w3.org/2000/svg">
<path fill-rule="evenodd" clip-rule="evenodd" d="M8.99999 21.43C10.6465 23.0835 12.8865 24.009 15.22 24C18.7766 24.0053 21.9851 21.8646 23.3455 18.5785C24.7059 15.2924 23.9496 11.5102 21.43 8.99999L12.71 0.289986C12.5213 0.1028 12.2658 -0.00155054 12 -1.37813e-05H0.999986C0.447701 -1.37813e-05 -1.37813e-05 0.447701 -1.37813e-05 0.999986V12C-0.00155054 12.2658 0.1028 12.5213 0.289986 12.71L8.99999 21.43ZM10.43 20L1.99999 11.59V1.99999H11.59L20 10.43C21.7952 12.1216 22.5283 14.6557 21.9135 17.0446C21.2988 19.4334 19.4334 21.2988 17.0446 21.9135C14.6557 22.5283 12.1216 21.7952 10.43 20Z" fill="#01BBA6"/>
<path fill-rule="evenodd" clip-rule="evenodd" d="M4 7C4 8.65685 5.34315 10 7 10C7.79565 10 8.55871 9.68393 9.12132 9.12132C9.68393 8.55871 10 7.79565 10 7C10 5.34315 8.65685 4 7 4C5.34315 4 4 5.34315 4 7ZM6 7C6 6.44772 6.44772 6 7 6C7.55228 6 8 6.44772 8 7C8 7.55228 7.55228 8 7 8C6.44772 8 6 7.55228 6 7Z" fill="#01BBA6"/>
</svg>
