<svg width="24" height="30" viewBox="0 0 24 30" fill="none" xmlns="http://www.w3.org/2000/svg">
<path d="M23.8726 21.1763C23.8726 22.1038 23.2001 23.2563 22.4001 23.7038L13.4728 28.7924C12.6728 29.2399 11.329 29.2399 10.529 28.7924L1.60039 23.7038C0.800388 23.2563 0.127876 22.1038 0.127876 21.1763V2.55264C0.127876 1.62515 0.895364 0.856383 1.82413 0.856383H22.1441C23.0716 0.856383 23.8404 1.62387 23.8404 2.55264V21.1763H23.8726ZM17.2477 20.3438L15.2639 14.2001L20.5113 10.3928H14.0476L12.0001 4.24781L9.98388 10.3915H3.5202L8.76756 14.1988L6.78381 20.3425L12.0001 16.5361L17.2477 20.3438Z" fill="#FD9A3F"/>
</svg>
