<svg width="20" height="20" viewBox="0 0 20 20" fill="none" xmlns="http://www.w3.org/2000/svg">
<path d="M10 20C4.47715 20 0 15.5228 0 10C0 4.47715 4.47715 0 10 0C10.5523 0 11 0.447715 11 1C11 1.55228 10.5523 2 10 2C6.38049 2.00285 3.2138 4.43557 2.27819 7.93207C1.34257 11.4286 2.87115 15.1177 6.00554 16.9278C9.13994 18.7379 13.0992 18.218 15.66 15.66C16.0568 15.3202 16.6482 15.3431 17.0176 15.7124C17.3869 16.0818 17.4098 16.6732 17.07 17.07C15.1951 18.9455 12.6519 19.9994 10 20Z" fill="#01BBA6"/>
<path fill-rule="evenodd" clip-rule="evenodd" d="M12.0542 1.94753C12.1767 2.18871 12.3916 2.36999 12.65 2.45C12.7622 2.48991 12.8812 2.50691 13 2.5C13.4051 2.47789 13.7567 2.2132 13.89 1.83C14.0691 1.30812 13.7916 0.739795 13.27 0.560001C12.751 0.379974 12.1839 0.652343 12 1.17C11.9122 1.42584 11.9317 1.70635 12.0542 1.94753ZM15 3.74C14.5711 3.39655 14.4996 2.77137 14.84 2.34C15.1835 1.91109 15.8086 1.83964 16.24 2.18C16.449 2.34522 16.5834 2.587 16.6134 2.8517C16.6435 3.11641 16.5666 3.38216 16.4 3.59C16.2094 3.82499 15.9226 3.96103 15.62 3.96C15.3944 3.95869 15.1759 3.88116 15 3.74ZM16.7035 4.98357C16.6435 5.2425 16.689 5.51469 16.83 5.74H16.77C16.964 6.0519 17.3134 6.23235 17.68 6.21C17.8672 6.2106 18.0509 6.15863 18.21 6.06C18.4358 5.91975 18.5965 5.69537 18.6565 5.43643C18.7165 5.1775 18.671 4.90531 18.53 4.68C18.3897 4.45421 18.1654 4.29355 17.9064 4.23351C17.6475 4.17346 17.3753 4.21898 17.15 4.36C16.9242 4.50026 16.7635 4.72463 16.7035 4.98357ZM17.83 8.22C17.7632 7.96272 17.8016 7.68944 17.9367 7.46053C18.0718 7.23161 18.2925 7.0659 18.55 7C18.8086 6.94015 19.0804 6.98557 19.3055 7.12625C19.5306 7.26693 19.6905 7.49133 19.75 7.75C19.8253 8.0156 19.7874 8.30052 19.6454 8.53725C19.5034 8.77397 19.2698 8.94145 19 9C18.927 9.00942 18.853 9.00942 18.78 9C18.3108 9.00211 17.9032 8.67772 17.8 8.22H17.83ZM18 10.89C17.9338 11.4228 18.3002 11.9128 18.83 12H18.88H19C19.5048 11.9986 19.9294 11.6212 19.99 11.12C20.0208 10.8545 19.9441 10.5876 19.7769 10.3791C19.6096 10.1705 19.3659 10.0376 19.1 10.01C18.5539 9.95148 18.0628 10.3444 18 10.89ZM17.21 13.47C16.974 13.9671 17.1841 14.5615 17.68 14.8C17.811 14.8635 17.9544 14.8976 18.1 14.9C18.4847 14.8989 18.8346 14.6773 19 14.33C19.2374 13.8355 19.0321 13.2422 18.54 13C18.0429 12.764 17.4485 12.9741 17.21 13.47Z" fill="#01BBA6"/>
<path d="M8 13C7.7342 13.0015 7.47872 12.8972 7.29 12.71C7.10069 12.5222 6.9942 12.2666 6.9942 12C6.9942 11.7334 7.10069 11.4778 7.29 11.29L9 9.59V4C9 3.44772 9.44772 3 10 3C10.5523 3 11 3.44772 11 4V10C11.0015 10.2658 10.8972 10.5213 10.71 10.71L8.71 12.71C8.52128 12.8972 8.2658 13.0015 8 13Z" fill="#01BBA6"/>
</svg>
