<svg width="18" height="24" viewBox="0 0 18 24" fill="none" xmlns="http://www.w3.org/2000/svg">
<path fill-rule="evenodd" clip-rule="evenodd" d="M3 24H15C16.6569 24 18 22.6569 18 21V15C18 13.3431 16.6569 12 15 12H3C1.34315 12 0 13.3431 0 15V21C0 22.6569 1.34315 24 3 24ZM2 15C2 14.4477 2.44772 14 3 14H15C15.5523 14 16 14.4477 16 15V21C16 21.5523 15.5523 22 15 22H3C2.44772 22 2 21.5523 2 21V15Z" fill="#01BBA6"/>
<path d="M4 14C3.44772 14 3 13.5523 3 13V6C3 2.68629 5.68629 0 9 0C12.3137 0 15 2.68629 15 6V10C15 10.5523 14.5523 11 14 11C13.4477 11 13 10.5523 13 10V6C13 3.79086 11.2091 2 9 2C6.79086 2 5 3.79086 5 6V13C5 13.5523 4.55228 14 4 14Z" fill="#01BBA6"/>
<path d="M9 19C7.89543 19 7 18.1046 7 17C7 15.8954 7.89543 15 9 15C10.1046 15 11 15.8954 11 17C11 18.1046 10.1046 19 9 19Z" fill="#01BBA6"/>
<path d="M9 21C8.44772 21 8 20.5523 8 20V18C8 17.4477 8.44772 17 9 17C9.55228 17 10 17.4477 10 18V20C10 20.5523 9.55228 21 9 21Z" fill="#01BBA6"/>
</svg>
